<?xml version="1.0" encoding="utf-8"?>
<!-- Generator: Adobe Illustrator 25.4.1, SVG Export Plug-In . SVG Version: 6.00 Build 0)  -->
<svg version="1.2" baseProfile="tiny" id="Capa_1" xmlns="http://www.w3.org/2000/svg" xmlns:xlink="http://www.w3.org/1999/xlink"
	 x="0px" y="0px" viewBox="0 0 101.9 101.9" overflow="visible" xml:space="preserve">
<path fill="#DD2B75" d="M90.3,99.3H11.7c-5,0-9-4-9-9V11.7c0-5,4-9,9-9h78.6c5,0,9,4,9,9v78.6C99.3,95.3,95.3,99.3,90.3,99.3z"/>
<g>
	<path fill="#FFFFFF" d="M51,82.6c-5.5-3.2-10.9-6.3-16.4-9.5c-3-1.7-6-3.5-9-5.2c-0.9-0.5-1.3-1.2-1.3-2.3c0-9.4,0-18.8,0-28.2
		c0-1.1,0.4-1.8,1.4-2.3C33.8,30.4,42,25.7,50.1,21c1-0.6,1.8-0.6,2.8,0c8.1,4.7,16.3,9.5,24.4,14.2c1,0.6,1.4,1.3,1.4,2.4
		c0,9.4,0,18.7,0,28.1c0,1.1-0.4,1.8-1.3,2.3c-8.2,4.7-16.4,9.5-24.6,14.2c-0.3,0.1-0.5,0.3-0.8,0.4C51.7,82.6,51.4,82.6,51,82.6z
		 M73.2,37c-0.3-0.2-0.4-0.3-0.6-0.4c-6.8-4-13.6-7.9-20.4-11.9c-0.5-0.3-0.8-0.3-1.3,0c-6.8,4-13.7,7.9-20.5,11.9
		c-0.2,0.1-0.3,0.2-0.5,0.3c0.2,0.1,0.4,0.3,0.6,0.3c6.9,3.9,13.7,7.9,20.5,11.8c0.4,0.3,0.7,0.2,1.1,0c5.9-3.4,11.8-6.8,17.7-10.2
		C70.9,38.3,72,37.7,73.2,37z M28,62.9c0.3-0.1,0.5-0.2,0.7-0.4c4.6-2.7,9.3-5.3,13.9-8c0.3-0.2,0.6-0.4,1-0.5
		c0.9-0.4,1.9-0.1,2.3,0.7c0.5,0.8,0.3,1.8-0.5,2.4c-0.2,0.1-0.4,0.3-0.6,0.4c-4.7,2.7-9.5,5.4-14.2,8.1c-0.2,0.1-0.4,0.2-0.7,0.4
		c6.7,3.9,13.2,7.7,19.8,11.5c0-0.2,0-0.3,0-0.4c0-8.1,0-16.1,0-24.2c0-0.4-0.2-0.6-0.5-0.7c-6.9-4-13.8-7.9-20.7-11.9
		c-0.2-0.1-0.3-0.2-0.5-0.3C28,47.8,28,55.3,28,62.9z M53.3,77.6C60,73.8,66.6,70,73.2,66.1c-0.3-0.2-0.5-0.3-0.7-0.4
		c-4.7-2.7-9.4-5.4-14.1-8.1c-0.2-0.1-0.5-0.3-0.7-0.5c-0.6-0.5-0.8-1.3-0.6-2c0.3-0.7,0.9-1.2,1.7-1.2c0.4,0,0.9,0.2,1.2,0.4
		c4.8,2.7,9.6,5.5,14.4,8.2c0.2,0.1,0.4,0.2,0.6,0.3c0-7.6,0-15.1,0-22.7c-0.2,0.1-0.3,0.2-0.5,0.2c-6.9,4-13.8,8-20.8,11.9
		c-0.4,0.2-0.4,0.4-0.4,0.8c0,8,0,15.9,0,23.9C53.3,77.2,53.3,77.3,53.3,77.6z"/>
	<path fill="#FFFFFF" d="M21.9,82.6c-1.1-0.4-1.5-1.2-1.5-2.4c0-2.3,0-4.5,0-6.8c0-1.4,1.3-2.3,2.6-1.7c0.7,0.3,1.1,0.9,1.1,1.7
		c0,1.6,0,3.2,0,4.8c0,0.2,0,0.4,0,0.7c1.4,0,2.7,0,4,0c0.5,0,0.9,0,1.4,0c1,0,1.7,0.6,1.9,1.5c0.2,0.9-0.3,1.7-1.2,2.1
		c-0.1,0-0.1,0.1-0.2,0.1C27.2,82.6,24.6,82.6,21.9,82.6z"/>
	<path fill="#FFFFFF" d="M73.1,82.6c-0.1-0.1-0.2-0.1-0.3-0.2c-0.8-0.4-1.3-1.2-1.1-2c0.2-0.9,0.9-1.5,1.8-1.5c1.6,0,3.1,0,4.7,0
		c0.2,0,0.4,0,0.7,0c0-1,0-1.9,0-2.8c0-0.9,0-1.8,0-2.7c0-1,0.6-1.8,1.5-2c0.9-0.2,1.6,0.3,2.1,1.2c0,0,0.1,0.1,0.1,0.1
		c0,2.8,0,5.5,0,8.3c-0.3,0.7-0.7,1.2-1.5,1.5C78.5,82.6,75.8,82.6,73.1,82.6z"/>
	<path fill="#FFFFFF" d="M82.6,30c-0.3,0.6-0.6,1.2-1.3,1.4c-1.2,0.3-2.3-0.5-2.3-1.8c0-1.8,0-3.6,0-5.5c-0.3,0-0.5,0-0.7,0
		c-1.5,0-3,0-4.5,0c-1.2,0-2-0.7-2-1.8c0-1.1,0.8-1.8,2-1.8c2.2,0,4.4,0,6.5,0c1.2,0,2,0.4,2.4,1.5C82.6,24.6,82.6,27.3,82.6,30z"/>
	<path fill="#FFFFFF" d="M24.1,24.1c0,1.9,0,3.7,0,5.6c0,1.4-1.5,2.3-2.7,1.6c-0.6-0.4-0.9-0.9-0.9-1.6c0-2.4,0-4.9,0-7.3
		c0-1.1,0.8-1.8,1.8-1.8c2.4,0,4.8,0,7.2,0c1.1,0,1.9,0.8,1.8,1.8c0,1-0.8,1.8-1.8,1.8c-1.6,0-3.2,0-4.7,0
		C24.6,24.1,24.4,24.1,24.1,24.1z"/>
</g>
</svg>
