<?xml version="1.0" encoding="utf-8"?>
<!-- Generator: Adobe Illustrator 25.4.1, SVG Export Plug-In . SVG Version: 6.00 Build 0)  -->
<svg version="1.2" baseProfile="tiny" id="Capa_1" xmlns="http://www.w3.org/2000/svg" xmlns:xlink="http://www.w3.org/1999/xlink"
	 x="0px" y="0px" viewBox="0 0 101.9 101.9" overflow="visible" xml:space="preserve">
<path fill="#DD2B75" d="M91,100.2H11c-5.1,0-9.2-4.1-9.2-9.2V11c0-5.1,4.1-9.2,9.2-9.2h80c5.1,0,9.2,4.1,9.2,9.2v80
	C100.2,96,96,100.2,91,100.2z"/>
<path fill="#FFFFFF" d="M49.9,83.4c-1.2-0.6-1.5-1.2-0.8-2.5c4.8-8.3,9.7-16.7,14.5-25c0.8-1.3,1.9-1.3,2.7,0
	c2.9,4.9,5.8,9.9,8.6,14.8c0.5,0.9,0.5,1.4-0.2,2.1c-5.5,5.8-12.1,9.3-20.1,10.3c-0.6,0.1-1.2,0.2-1.7,0.2
	C51.9,83.4,50.9,83.4,49.9,83.4z"/>
<path fill="#FFFFFF" d="M18.5,49c0.2-1.2,0.3-2.3,0.5-3.5c0.7-4,2.1-7.7,4.2-11.2c0.7-1.2,1.9-1.2,2.6,0.1
	c3.9,6.7,7.7,13.5,11.6,20.2c1,1.7,1.9,3.3,2.9,5c0.7,1.3,0.1,2.3-1.3,2.3c-5.8,0-11.6,0-17.3,0c-1,0-1.4-0.3-1.6-1.2
	c-0.7-2.3-1.2-4.6-1.3-7c0-0.2-0.1-0.4-0.1-0.7C18.5,51.6,18.5,50.3,18.5,49z"/>
<path fill="#FFFFFF" d="M53.1,20.2c-0.1,0.1-0.1,0.4-0.3,0.7c-4.9,8.4-9.7,16.8-14.6,25.2c-0.7,1.2-1.9,1.2-2.5,0
	C32.7,41.1,29.8,36,27,31c-0.5-0.8-0.4-1.3,0.3-2c5.2-5.5,11.5-8.9,19-10c1.8-0.3,3.6-0.3,5.4-0.3C52.5,18.6,53.1,19.2,53.1,20.2z"
	/>
<path fill="#FFFFFF" d="M63.4,37.5c-4.8,0-9.7,0-14.5,0c-0.6,0-1.2-0.1-1.5-0.8c-0.3-0.6-0.1-1,0.2-1.5c2.7-4.7,5.4-9.4,8.2-14.1
	c1.2-2,1.2-2.1,3.5-1.4c8.8,2.4,15.4,7.6,20,15.5c0.7,1.2,0.1,2.4-1.4,2.4C73,37.5,68.2,37.5,63.4,37.5z"/>
<path fill="#FFFFFF" d="M38.4,64.5c4.8,0,9.7,0,14.5,0c0.6,0,1.2,0.1,1.5,0.8c0.3,0.6,0.1,1.1-0.2,1.5c-2.5,4.3-5,8.7-7.6,13
	c-0.4,0.7-0.8,1.4-1.2,2c-0.4,0.7-0.9,0.9-1.8,0.7c-9.3-2.3-16.4-7.5-21.1-15.8c-0.7-1.3-0.1-2.3,1.3-2.3
	C28.8,64.5,33.6,64.5,38.4,64.5z"/>
<path fill="#FFFFFF" d="M71.5,40.2c2.8,0,5.7,0,8.5,0c1.2,0,1.5,0.2,1.8,1.3c2.6,9.1,1.6,17.7-3.1,25.9c-0.7,1.3-1.9,1.3-2.6,0
	c-4.9-8.3-9.7-16.6-14.5-25c-0.7-1.3-0.2-2.3,1.3-2.3C65.8,40.2,68.7,40.2,71.5,40.2z"/>
</svg>
