<?xml version="1.0" encoding="utf-8"?>
<!-- Generator: Adobe Illustrator 25.4.1, SVG Export Plug-In . SVG Version: 6.00 Build 0)  -->
<svg version="1.2" baseProfile="tiny" id="Capa_1" xmlns="http://www.w3.org/2000/svg" xmlns:xlink="http://www.w3.org/1999/xlink"
	 x="0px" y="0px" viewBox="0 0 101.9 101.9" overflow="visible" xml:space="preserve">
<path fill="#DD2B75" d="M90.3,99.3H11.7c-5,0-9-4-9-9V11.7c0-5,4-9,9-9h78.6c5,0,9,4,9,9v78.6C99.3,95.3,95.3,99.3,90.3,99.3z"/>
<g>
	<path fill="#FFFFFF" d="M28.6,87.2c-0.4-0.1-0.8-0.2-1.3-0.4c-3.4-1.1-5.5-4-5.5-7.7c0-10.8,0-21.5,0-32.3c0-0.8-0.1-1.6-0.3-2.3
		c-0.6-2.3-1.3-4.5-1.9-6.8c-1.3-4.5,1-8.7,5.5-10c11.3-3.3,22.7-6.6,34.1-9.9c3.1-0.9,6.2-1.9,9.4-2.7c4.4-1.1,8.3,1.2,9.6,5.5
		c0.8,2.6,1.5,5.2,2.3,7.8c0.4,1.3,0,1.9-1.3,2.3c-6.4,1.8-12.7,3.7-19.1,5.5c-8.5,2.5-17.1,4.9-25.6,7.4c-0.2,0.1-0.4,0.1-0.7,0.3
		c0.2,0,0.5,0,0.7,0c15.4,0,30.8,0,46.2,0c0.3,0,0.6,0,0.9,0c0.7,0.1,1.1,0.4,1.2,1.1c0,0.3,0.1,0.6,0.1,0.8c0,10.9,0,21.9,0,32.8
		c0,3.5-1.5,6.1-4.7,7.6c-0.7,0.3-1.4,0.5-2.1,0.7c-6.1,0-12.2,0-18.4,0c-0.1-0.1-0.3-0.2-0.4-0.3c-0.5-0.4-0.7-0.8-0.6-1.4
		c0.1-0.6,0.5-1,1.1-1.1c0.3-0.1,0.6-0.1,0.8-0.1c5.3,0,10.5,0,15.8,0c3.6,0,5.6-2.1,5.6-5.6c0-6,0-11.9,0-17.9c0-0.3,0-0.5,0-0.8
		c-18.5,0-36.9,0-55.3,0c0,0.3,0,0.5,0,0.7c0,6,0,12.1,0,18.1c0,3.3,2.1,5.4,5.4,5.4c2.6,0,5.2,0,7.8,0c2.8,0,5.6,0,8.5,0
		c1,0,1.6,0.5,1.7,1.3c0.1,0.8-0.4,1.2-1.1,1.6C40.8,87.2,34.7,87.2,28.6,87.2z M61.4,20.1c0.2,0.2,0.2,0.3,0.3,0.4
		c3.2,3.1,6.4,6.2,9.6,9.2c0.2,0.2,0.5,0.2,0.8,0.2c1.5-0.4,3.1-0.9,4.6-1.3c0.2-0.1,0.3-0.1,0.5-0.2c-0.7-2.5-1.4-5-2.2-7.4
		c-0.7-2.2-3.2-3.6-5.3-3.1C67,18.4,64.3,19.3,61.4,20.1z M36.5,40.1c0-0.1,0-0.2-0.1-0.2c-3.3-3.2-6.6-6.3-9.9-9.5
		c-0.1-0.1-0.3-0.2-0.4-0.2c-2.5,0.3-4.7,3.2-4.1,5.7c0.4,1.9,1,3.8,1.5,5.6c0.2,0.7,0.4,1.3,0.6,2C28.3,42.5,32.4,41.3,36.5,40.1z
		 M79.9,46.9c-1.9,0-3.8,0-5.7,0c-0.5,0-0.7,0.1-1,0.6c-1.7,3.1-3.5,6.1-5.3,9.2c-0.1,0.2-0.2,0.4-0.3,0.6c4.2,0,8.2,0,12.3,0
		C79.9,53.8,79.9,50.4,79.9,46.9z M24.7,46.9c0,3.5,0,6.9,0,10.3c2,0,3.9,0,5.8,0c0.4,0,0.7-0.2,0.9-0.5c1.8-3.1,3.5-6.1,5.3-9.2
		c0.1-0.2,0.2-0.4,0.3-0.6C32.8,46.9,28.8,46.9,24.7,46.9z M50.9,23.1c0,0.1-0.1,0.1-0.1,0.2c0.2,0.1,0.4,0.3,0.6,0.4
		c2.6,2.5,5.2,5,7.8,7.5c0.6,0.6,1.2,1.5,1.9,1.6c0.7,0.2,1.6-0.3,2.4-0.6c1.6-0.5,3.3-1,5-1.5c-0.1-0.2-0.2-0.3-0.3-0.3
		c-3.2-3.1-6.4-6.2-9.6-9.2c-0.2-0.2-0.6-0.2-0.8-0.2c-1.8,0.5-3.7,1-5.5,1.6C51.8,22.9,51.4,23,50.9,23.1z M58,33.9
		c-0.3-0.3-0.5-0.4-0.7-0.6c-2.9-2.8-5.8-5.5-8.6-8.3c-0.8-0.8-1.4-0.9-2.4-0.6c-2,0.7-4,1.2-6,1.8c0.1,0.2,0.2,0.3,0.3,0.3
		c3.2,3.1,6.4,6.2,9.6,9.2c0.2,0.2,0.6,0.2,0.8,0.2c1.5-0.4,3-0.8,4.5-1.3C56.2,34.4,57,34.2,58,33.9z M47.2,37
		c-0.1-0.1-0.1-0.2-0.2-0.2c-3.3-3.1-6.5-6.3-9.8-9.4c-0.2-0.1-0.5-0.2-0.7-0.1c-2,0.5-3.9,1.1-5.9,1.7c-0.3,0.1-0.7,0.2-1.2,0.4
		c0.3,0.2,0.5,0.4,0.7,0.5c2.5,2.4,5.1,4.9,7.6,7.3c0.7,0.6,1.2,1.6,2,1.8c0.8,0.2,1.8-0.4,2.7-0.6C44,38,45.6,37.5,47.2,37z
		 M59.1,46.9c-2.6,0-5,0-7.4,0c-0.2,0-0.5,0.3-0.7,0.5c-1.8,3.1-3.6,6.2-5.4,9.3c-0.1,0.1-0.1,0.3-0.2,0.5c2.4,0,4.7,0,7,0
		c0.5,0,0.8-0.1,1.1-0.6c1.7-3,3.4-6,5.2-9C58.8,47.5,59,47.2,59.1,46.9z M56.5,57.2c0.1,0,0.2,0.1,0.3,0.1c2.4,0,4.7,0,7.1,0
		c0.2,0,0.6-0.3,0.7-0.5c1.8-3.1,3.6-6.1,5.3-9.2c0.1-0.2,0.2-0.4,0.3-0.6c-2.4,0-4.8,0-7.1,0c-0.5,0-0.8,0.2-1,0.6
		c-1.7,3-3.5,6.1-5.2,9.1C56.7,56.7,56.6,57,56.5,57.2z M34.3,57.3c2.6,0,5,0,7.4,0c0.2,0,0.5-0.3,0.7-0.5c1.8-3.1,3.6-6.2,5.4-9.3
		c0.1-0.1,0.1-0.3,0.2-0.5c-2.4,0-4.7,0-7.1,0c-0.5,0-0.7,0.1-1,0.6c-1.7,3.1-3.5,6.1-5.3,9.2C34.6,56.8,34.5,57,34.3,57.3z"/>
	<path fill="#FFFFFF" d="M51.9,87.2c-0.1-0.1-0.3-0.2-0.4-0.3c-0.5-0.4-0.7-0.9-0.5-1.5c0.2-0.6,0.7-1,1.3-1c0.6,0,1.1,0.3,1.3,1
		c0.2,0.7,0,1.2-0.6,1.6c-0.1,0.1-0.3,0.2-0.4,0.2C52.3,87.2,52.1,87.2,51.9,87.2z"/>
	<path fill="#FFFFFF" d="M46.8,72c0-2.3,0-4.5,0-6.8c0-1.5,1.1-2.2,2.4-1.4c4,2.3,7.9,4.6,11.9,6.8c1.3,0.8,1.3,2,0,2.8
		c-3.9,2.3-7.9,4.5-11.8,6.8c-1.4,0.8-2.4,0.2-2.4-1.4C46.8,76.6,46.8,74.3,46.8,72z M49.7,76.8c2.7-1.6,5.4-3.1,8.1-4.7
		c-2.8-1.6-5.4-3.1-8.1-4.7C49.7,70.6,49.7,73.6,49.7,76.8z"/>
</g>
</svg>
