<?xml version="1.0" encoding="utf-8"?>
<!-- Generator: Adobe Illustrator 25.4.1, SVG Export Plug-In . SVG Version: 6.00 Build 0)  -->
<svg version="1.2" baseProfile="tiny" id="Capa_1" xmlns="http://www.w3.org/2000/svg" xmlns:xlink="http://www.w3.org/1999/xlink"
	 x="0px" y="0px" viewBox="0 0 101.9 101.9" overflow="visible" xml:space="preserve">
<g>
	<path fill="#DD2B75" d="M90.3,99.3H11.7c-5,0-9-4-9-9V11.7c0-5,4-9,9-9h78.6c5,0,9,4,9,9v78.6C99.3,95.3,95.3,99.3,90.3,99.3z"/>
	<g>
		<path fill="#FFFFFF" d="M53.1,68.3c0-5.4,0-10.7,0-15.9c0-1.8,0-3.7,0-5.5c0-1.4-0.9-2.4-2.1-2.4c-1.3,0-2.1,1-2.1,2.4
			c0,6.9,0,13.7,0,20.6c0,0.2,0,0.5,0,0.9c-0.2-0.3-0.3-0.5-0.4-0.7c-3.9-6.5-7.8-13-11.7-19.5c-0.5-0.8-0.6-1.6-0.3-2.6
			c1-3,2-5.9,3-8.9c0.1-0.4,0.3-0.6,0.8-0.6c7.2,0,14.4,0,21.6,0c0.5,0,0.7,0.1,0.8,0.6c1,3,2,6.1,3,9.1c0.2,0.7,0.2,1.4-0.2,2.1
			c-4,6.7-8.1,13.4-12.1,20.2C53.3,68.1,53.2,68.1,53.1,68.3z"/>
		<path fill="#FFFFFF" d="M50.9,82.6c-15.5,0-28.8-11.3-31.3-26.5c-0.3-1.6-0.3-3.3-0.4-5c-0.1-1.4,0.8-2.3,2-2.3
			c1.3,0,2.1,0.9,2.2,2.3c0.3,10,4.6,17.7,13,23.1c5,3.3,10.6,4.5,16.6,4.1c11.1-0.8,20.7-8.4,24.1-19.1c0.9-2.7,1.3-5.4,1.3-8.3
			c0-1.6,1.5-2.6,2.9-2.1c0.8,0.3,1.3,1.1,1.3,2.1c0,4.9-1.1,9.5-3.3,13.9c-4.6,9-11.8,14.7-21.6,16.9c-2.2,0.5-4.6,0.7-6.9,1
			C51,82.8,51,82.7,50.9,82.6z"/>
		<path fill="#FFFFFF" d="M40.4,31.8c0-3.2,0.1-6.4,0-9.6c-0.1-2.3,0.8-3.2,3.1-3.1c5.2,0.1,10.4,0,15.6,0c1.6,0,2.5,0.8,2.5,2.4
			c0,3.4,0,6.8,0,10.2C54.5,31.8,47.5,31.8,40.4,31.8z"/>
	</g>
</g>
</svg>
