<?xml version="1.0" encoding="utf-8"?>
<!-- Generator: Adobe Illustrator 25.4.1, SVG Export Plug-In . SVG Version: 6.00 Build 0)  -->
<svg version="1.2" baseProfile="tiny" id="Capa_1" xmlns="http://www.w3.org/2000/svg" xmlns:xlink="http://www.w3.org/1999/xlink"
	 x="0px" y="0px" viewBox="0 0 101.9 101.9" overflow="visible" xml:space="preserve">
<path fill="#DD2B75" d="M90.3,99.3H11.7c-5,0-9-4-9-9V11.7c0-5,4-9,9-9h78.6c5,0,9,4,9,9v78.6C99.3,95.3,95.3,99.3,90.3,99.3z"/>
<g>
	<path fill="#FFFFFF" d="M74.8,29.4c-2,0-3.8,0-5.8,0c0-2.2,0-4.5,0-6.7c-15.5,0-30.8,0-46.3,0c0,10.3,0,20.6,0,31
		c8.7,0,17.3,0,26,0c0,2.7,0,5.3,0,8c-0.3,0-0.6,0-0.8,0c-8.6,0-17.2,0-25.9,0c-3.2,0-5.1-1.9-5.1-5.1c0-11.6,0-23.1,0-34.7
		c0-3.1,1.9-5,5.1-5c15.9,0,31.8,0,47.8,0c3.2,0,5.1,1.9,5.1,5.1C74.8,24.4,74.8,26.9,74.8,29.4z M45.8,56.2c-0.8,0-1.4,0.6-1.4,1.4
		c0,0.8,0.6,1.4,1.4,1.5c0.8,0,1.5-0.6,1.5-1.5C47.2,56.8,46.6,56.2,45.8,56.2z"/>
	<path fill="#FFFFFF" d="M85.1,58.7c0,6.7,0,13.4,0,20.1c0,3.9-2.4,6.3-6.3,6.3c-7,0-14,0-21.1,0c-3.8,0-6.2-2.4-6.2-6.2
		c0-13.4,0-26.9,0-40.3c0-3.8,2.4-6.2,6.2-6.2c7,0,14.1,0,21.1,0c3.8,0,6.2,2.5,6.2,6.2C85.1,45.3,85.1,52,85.1,58.7z M81.5,73.4
		c0-0.3,0-0.5,0-0.7c0-11.3,0-22.7,0-34c0-1.5-0.7-2.2-2.2-2.2c-7.2,0-14.5,0-21.7,0c-1.7,0-2.3,0.7-2.3,2.3c0,11.3,0,22.5,0,33.8
		c0,0.3,0,0.5,0,0.8C64,73.4,72.7,73.4,81.5,73.4z M68.4,80c0.4,0,0.8,0,1.1,0c0.8-0.1,1.3-0.7,1.3-1.5c0-0.8-0.6-1.4-1.4-1.4
		c-0.7,0-1.4,0-2.2,0c-0.8,0-1.4,0.7-1.4,1.4c0,0.7,0.6,1.4,1.3,1.4C67.6,80,68,80,68.4,80z"/>
	<path fill="#FFFFFF" d="M37.5,25.1c0.4,0.2,0.8,0.3,1.1,0.5c2.7,2,5.3,3.9,8,5.9c1,0.8,1,1.8,0,2.6c-2.6,2-5.3,3.9-7.9,5.9
		c-0.9,0.6-1.3,0.6-2.2,0c-2.6-1.9-5.2-3.9-7.8-5.8c-1.1-0.8-1.1-1.8,0-2.6c2.6-2,5.2-3.9,7.8-5.8C36.7,25.4,37.1,25.3,37.5,25.1z"
		/>
	<path fill="#FFFFFF" d="M39.5,64.6c3.1,0,6.1,0,9.2,0c0,3.2,0,6.3,0,9.5c-0.2,0-0.5,0-0.7,0c-4.9,0-9.9,0-14.8,0
		c-0.3,0-0.7,0-1-0.2c-0.6-0.3-0.9-0.8-0.8-1.5c0.1-0.7,0.5-1.1,1.2-1.2c0.1,0,0.3,0,0.4,0c1.4,0.3,2.6-0.3,3.6-1.3
		c0.5-0.5,1-0.9,1.4-1.3C39.1,67.5,40,66.3,39.5,64.6z"/>
	<path fill="#FFFFFF" d="M30.5,39.2c1.4,1,2.8,2.1,4.1,3.1c1.8,1.4,3.8,1.4,5.6,0c1.4-1,2.7-2,4-3c0,0,0.1,0,0.2-0.1
		c0.6,0.5,1.3,1,2,1.5c1,0.8,1,1.8,0,2.6c-2,1.5-4.1,3.1-6.1,4.6c-0.6,0.4-1.2,0.9-1.8,1.3c-0.7,0.5-1.3,0.5-2,0c-2.7-2-5.3-4-8-6
		c-1-0.7-1-1.8,0-2.5C29.1,40.2,29.8,39.8,30.5,39.2z"/>
	<path fill="#FFFFFF" d="M76.2,49.9c-0.3,0.4-0.5,0.8-0.8,1.1c-2,1.6-4.1,3.1-6.2,4.6c-0.6,0.4-1.1,0.4-1.7,0c-2-1.5-4.1-3-6.1-4.6
		c-0.8-0.6-0.9-1.5,0-2.1c2.1-1.6,4.1-3.1,6.2-4.6c0.6-0.4,1.1-0.4,1.7,0c2.1,1.6,4.2,3.1,6.3,4.7C75.7,49.1,75.9,49.5,76.2,49.9z"
		/>
	<path fill="#FFFFFF" d="M63.2,56c0.2,0.1,0.3,0.2,0.4,0.3c0.7,0.6,1.5,1.1,2.2,1.7c1.6,1.1,3.4,1.1,5,0c0.7-0.5,1.5-1,2.2-1.6
		c0.4-0.4,0.7-0.3,1.2,0c0.5,0.5,1.1,0.8,1.7,1.3c0.6,0.5,0.7,1,0,1.4c-2.3,1.7-4.6,3.4-6.9,5.2c-0.4,0.3-0.8,0.3-1.2,0
		c-2.3-1.7-4.6-3.4-6.9-5.2c-0.6-0.4-0.6-0.9,0-1.4c0.7-0.5,1.4-1,2-1.5C62.9,56.2,63,56.1,63.2,56z"/>
</g>
</svg>
