<?xml version="1.0" encoding="utf-8"?>
<!-- Generator: Adobe Illustrator 25.4.1, SVG Export Plug-In . SVG Version: 6.00 Build 0)  -->
<svg version="1.2" baseProfile="tiny" id="Capa_1" xmlns="http://www.w3.org/2000/svg" xmlns:xlink="http://www.w3.org/1999/xlink"
	 x="0px" y="0px" viewBox="0 0 101.9 101.9" overflow="visible" xml:space="preserve">
<path fill="#DD2B75" d="M90.3,99.3H11.7c-5,0-9-4-9-9V11.7c0-5,4-9,9-9h78.6c5,0,9,4,9,9v78.6C99.3,95.3,95.3,99.3,90.3,99.3z"/>
<g>
	<path fill="#FFFFFF" d="M82.9,61.8c-0.2,0.5-0.3,1-0.5,1.5c-1.1,2.3-2.9,3.5-5.4,3.5c-0.4,0-0.8,0-1.2,0c-16.8,0-33.7,0-50.5,0
		c-2.6,0-4.6-1.1-5.7-3.4c-0.4-0.7-0.6-1.6-0.6-2.5c0-12,0-24.1,0-36.1c0-2.9,2-5.2,4.8-5.8c0.1,0,0.2-0.1,0.3-0.1
		c17.9,0,35.8,0,53.6,0c0.1,0,0.3,0.1,0.4,0.1c2.2,0.5,3.7,1.8,4.4,3.9c0.1,0.3,0.2,0.7,0.3,1.1C82.9,36.7,82.9,49.3,82.9,61.8z
		 M50.9,63.2c8.6,0,17.1,0,25.7,0c1.8,0,2.6-0.8,2.6-2.5c0-11.7,0-23.5,0-35.2c0-1.8-0.8-2.6-2.6-2.6c-17.1,0-34.1,0-51.2,0
		c-1.8,0-2.6,0.8-2.6,2.6c0,11.7,0,23.4,0,35.2c0,1.8,0.8,2.6,2.6,2.6C33.9,63.2,42.4,63.2,50.9,63.2z"/>
	<path fill="#FFFFFF" d="M82.9,77.4c-0.4,1.1-1.2,1.5-2.4,1.5c-13.8,0-27.6,0-41.3,0c-0.5,0-0.7,0.1-1,0.6c-1,2.2-2.9,3.4-5.3,3.4
		c-2.4,0-4.2-1.1-5.3-3.4c-0.1-0.2-0.2-0.4-0.3-0.6c-2.1,0-4.1,0-6.2,0c-0.8,0-1.5-0.3-1.9-1.1c-0.6-1.3,0.3-2.6,1.7-2.7
		c1.9,0,3.8,0,5.7,0c0.5,0,0.7-0.1,0.9-0.6c1-2.3,2.9-3.4,5.3-3.4c2.5,0,4.3,1.2,5.3,3.4c0.2,0.4,0.4,0.5,0.9,0.5
		c13.8,0,27.6,0,41.4,0c1.2,0,2,0.4,2.3,1.5C82.9,76.9,82.9,77.2,82.9,77.4z M32.9,74.9c-1.2,0-2.1,0.9-2.1,2.1c0,1.1,1,2.1,2.1,2.1
		c1.2,0,2.2-0.9,2.2-2.1C35.1,75.8,34.2,74.9,32.9,74.9z"/>
	<path fill="#FFFFFF" d="M62.9,53c-1.2-0.3-2.3-0.6-3.5-0.8c-0.3-0.1-0.6-0.1-0.8,0c-2.4,0.9-4.8,0.9-7.2,0c-0.2-0.1-0.6-0.1-0.8,0
		c-2.4,0.9-4.8,0.9-7.2,0c-0.2-0.1-0.5-0.1-0.8,0c-5.8,2.2-12.2-1.3-13.4-7.4c-1.1-5.6,3.2-11.2,8.9-11.6c1.6-0.1,3.1,0.1,4.5,0.6
		c0.2,0.1,0.5,0.1,0.8,0c2.4-0.9,4.8-0.9,7.2,0c0.2,0.1,0.5,0.1,0.8,0c2.4-0.9,4.8-0.9,7.2,0c0.2,0.1,0.5,0.1,0.8,0
		c6-2.2,12.2,1.3,13.4,7.5c1,5.3-2.8,10.5-8.1,11.4c-0.6,0.1-1.1,0.1-1.7,0.2C62.9,53,62.9,53,62.9,53z M63,36.9
		c-3.5,0-6.1,2.6-6.2,6.1c0,3.3,2.8,6.1,6.1,6.1c3.4,0,6.1-2.7,6.2-6C69.2,39.6,66.5,36.9,63,36.9z M39.1,36.9
		c-2.4,0.1-4.3,0.9-5.4,3c-1.2,2.2-1.1,4.5,0.3,6.7c1.2,1.8,3,2.5,5.2,2.6C36.4,45,36.4,41,39.1,36.9z M47.1,49.1
		c-2.7-4.1-2.7-8.1,0-12.2c-3.5-0.2-6.2,2.5-6.2,6.1C40.9,46.5,43.6,49.2,47.1,49.1z M55.1,36.9c-2.4,0.1-4.4,0.9-5.5,3.1
		c-1.2,2.3-1.1,4.6,0.4,6.7c1.1,1.6,3.4,2.7,5.1,2.4C52.5,45,52.4,41,55.1,36.9z"/>
</g>
</svg>
