<?xml version="1.0" encoding="utf-8"?>
<!-- Generator: Adobe Illustrator 25.4.1, SVG Export Plug-In . SVG Version: 6.00 Build 0)  -->
<svg version="1.2" baseProfile="tiny" id="Capa_1" xmlns="http://www.w3.org/2000/svg" xmlns:xlink="http://www.w3.org/1999/xlink"
	 x="0px" y="0px" viewBox="0 0 101.9 101.9" overflow="visible" xml:space="preserve">
<path fill="#DD2B75" d="M90.3,99.3H11.7c-5,0-9-4-9-9V11.7c0-5,4-9,9-9h78.6c5,0,9,4,9,9v78.6C99.3,95.3,95.3,99.3,90.3,99.3z"/>
<path fill="#FFFFFF" d="M18,68.6c0-12.5,0-25,0-37.6c0-0.1,0.1-0.2,0.1-0.3c0.7-3,2.9-4.7,6-4.7c0.6,0,1.1,0,1.8,0
	c0-0.3,0-0.5,0-0.7c0-1.7,0-3.5,0-5.2c0-1.3,0.8-2.1,2.1-2.1c12.8,0,25.7,0,38.5,0c3.4,0,6.2,1.6,8,4.5c0.7,1,1.1,2.3,1.6,3.5
	c0.5,0,1.1,0,1.6,0c3.7,0,6.1,2.4,6.1,6.1c0,11.8,0,23.6,0,35.4c0,3.7-2.5,6.1-6.1,6.1c-5.5,0-11,0-16.5,0c-0.2,0-0.5,0-0.7,0
	c0,0.1,0,0.1,0,0.1c0.5,2,1,4,1.5,6c0,0.1,0.3,0.3,0.5,0.3c0.5,0,0.9,0,1.4,0c0.9,0.1,1.6,0.7,1.8,1.5c0.2,0.8-0.2,1.6-0.9,2.1
	c-0.1,0.1-0.3,0.2-0.4,0.3c-8.9,0-17.8,0-26.8,0c-0.1,0-0.1-0.1-0.2-0.1c-0.9-0.5-1.4-1.3-1.2-2.2c0.2-0.9,1-1.5,2-1.5
	c0.4,0,0.8,0,1.2,0c0.2,0,0.4-0.2,0.5-0.4c0.2-0.7,0.4-1.3,0.5-2c0.3-1.3,0.7-2.6,1-4c-0.3,0-0.5,0-0.8,0c-5.6,0-11.2,0-16.7,0
	c-2.6,0-4.8-1.6-5.6-4C18.1,69.3,18,69,18,68.6z M64.4,22c-11.6,0-23.2,0-34.7,0c0,13.4,0,26.7,0,40c14.2,0,28.3,0,42.4,0
	c0-10.8,0-21.6,0-32.4c-1.7,0-3.5,0-5.2,0c-1.9,0-2.5-0.6-2.5-2.5C64.4,25.5,64.4,23.7,64.4,22z M21.8,66c0,0.5,0,1,0,1.4
	c0,1.7,0.7,2.4,2.4,2.4c17.8,0,35.6,0,53.4,0c0.2,0,0.3,0,0.5,0c0.9-0.1,1.7-0.7,1.8-1.5c0.1-0.7,0-1.5,0-2.3
	C60.6,66,41.2,66,21.8,66z M80,62c0-0.3,0-0.6,0-0.8c0-8.1,0-16.1,0-24.2c0-1.7,0-3.4,0-5.1c0-1-0.6-1.8-1.5-2c-0.8-0.1-1.6,0-2.5,0
	c0,10.7,0,21.4,0,32.1C77.3,62,78.6,62,80,62z M25.8,62c0-10.7,0-21.4,0-32.1c-0.6,0-1.1,0-1.6,0c-1.6,0-2.4,0.7-2.4,2.3
	c0,9.7,0,19.4,0,29.1c0,0.2,0,0.5,0,0.7C23.1,62,24.4,62,25.8,62z M58.1,80.1c-0.5-2.1-1-4.1-1.5-6.1c0-0.1-0.4-0.3-0.5-0.3
	c-3.4,0-6.8,0-10.2,0c-0.4,0-0.5,0.1-0.6,0.5c-0.2,1-0.5,2-0.8,3.1c-0.2,0.9-0.5,1.9-0.7,2.9C48.5,80.1,53.2,80.1,58.1,80.1z
	 M71.7,25.8c-0.3-1.5-2.1-3.3-3.4-3.4c0,1.1,0,2.2,0,3.4C69.5,25.8,70.6,25.8,71.7,25.8z"/>
<path fill="#FFFFFF" d="M43.2,40.1c-2.5,0-5,0-7.5,0c-1.4,0-2.2-0.8-2.2-2.2c0-3.3,0-6.6,0-9.8c0-1.4,0.8-2.1,2.2-2.1c5,0,10,0,15,0
	c1.4,0,2.2,0.8,2.2,2.1c0,3.3,0,6.6,0,9.9c0,1.3-0.8,2.1-2.1,2.1C48.2,40.1,45.7,40.1,43.2,40.1z M37.4,36.2c3.9,0,7.7,0,11.5,0
	c0-2.2,0-4.3,0-6.4c-3.9,0-7.7,0-11.5,0C37.4,31.9,37.4,34,37.4,36.2z"/>
<path fill="#FFFFFF" d="M43.2,43.9c2.5,0,4.9,0,7.4,0c1.3,0,2.2,0.8,2.2,1.9c0,1.1-0.9,1.9-2.2,1.9c-5,0-10,0-15,0
	c-1.3,0-2.2-0.8-2.2-2c0-1.1,0.9-1.9,2.1-1.9C38.2,43.9,40.7,43.9,43.2,43.9z"/>
<path fill="#FFFFFF" d="M43.1,55.5c-2.5,0-4.9,0-7.4,0c-1.3,0-2.2-0.8-2.2-1.9c0-1.1,0.9-1.9,2.2-1.9c5,0,10,0,15,0
	c1.3,0,2.2,0.8,2.2,2c0,1.1-0.9,1.9-2.1,1.9C48.2,55.5,45.6,55.5,43.1,55.5z"/>
<path fill="#FFFFFF" d="M62.5,36.2c1.2,0,2.5,0,3.7,0c1.2,0,2.1,0.8,2.1,1.9c0,1.1-0.8,1.9-2,1.9c-2.5,0-5,0-7.5,0
	c-1.2,0-2-0.8-2-1.9c0-1.1,0.9-1.9,2.1-1.9C60,36.2,61.2,36.2,62.5,36.2z"/>
<path fill="#FFFFFF" d="M62.5,43.9c1.2,0,2.4,0,3.7,0c1.2,0,2.1,0.8,2.1,1.9c0,1.1-0.9,1.9-2,1.9c-2.5,0-5,0-7.5,0
	c-1.2,0-2-0.8-2-1.9c0-1.1,0.9-1.9,2-1.9C60,43.9,61.3,43.9,62.5,43.9z"/>
<path fill="#FFFFFF" d="M62.4,55.5c-1.2,0-2.4,0-3.7,0c-1.2,0-2.1-0.8-2.1-1.9c0-1.1,0.9-1.9,2-1.9c2.5,0,5,0,7.5,0
	c1.2,0,2,0.8,2,1.9c0,1.1-0.9,1.9-2,1.9C65,55.5,63.7,55.5,62.4,55.5z"/>
</svg>
