<?xml version="1.0" encoding="utf-8"?>
<!-- Generator: Adobe Illustrator 25.4.1, SVG Export Plug-In . SVG Version: 6.00 Build 0)  -->
<svg version="1.2" baseProfile="tiny" id="Capa_1" xmlns="http://www.w3.org/2000/svg" xmlns:xlink="http://www.w3.org/1999/xlink"
	 x="0px" y="0px" viewBox="0 0 101.9 101.9" overflow="visible" xml:space="preserve">
<path fill="#DD2B75" d="M90.3,99.3H11.7c-5,0-9-4-9-9V11.7c0-5,4-9,9-9h78.6c5,0,9,4,9,9v78.6C99.3,95.3,95.3,99.3,90.3,99.3z"/>
<g>
	<path fill="#FFFFFF" d="M78.7,36.1c-18.5,0-36.9,0-55.4,0c0,0.3,0,0.5,0,0.7c0,10.1,0,20.1,0,30.2c0,2.1,1.1,3.2,3.2,3.2
		c0.4,0,0.8,0,1.2,0c1.1,0.1,2,0.9,2,2c0.1,1.1-0.7,2.1-1.7,2.2c-2.4,0.3-4.7,0-6.6-1.8c-1.5-1.4-2.3-3.2-2.3-5.3
		c0-3.6,0-7.1,0-10.7c0-10.1,0-20.2,0-30.4c0-3.5,2.1-6.2,5.4-7c0.6-0.2,1.3-0.2,1.9-0.2c16.5,0,32.9,0,49.4,0c4.3,0,7.3,3,7.3,7.3
		c0,13.6,0,27.2,0,40.8c0,4.3-3.1,7.3-7.3,7.3c-0.4,0-0.9,0-1.3,0c-1.1-0.1-2-1-2-2.2c0-1.1,0.9-2,2-2.1c0.5,0,1,0,1.5,0
		c1.8,0,2.9-1.2,2.9-2.9c0-6.2,0-12.3,0-18.5c0-4,0-8,0-12.1C78.7,36.5,78.7,36.3,78.7,36.1z M78.7,31.8c0-1.8,0-3.6,0-5.3
		c0-2.1-1.1-3.2-3.2-3.2c-7.5,0-15.1,0-22.6,0c-8.9,0-17.8,0-26.6,0c-1.8,0-3,1.1-3,2.9c0,0.8,0,1.6,0,2.5c0,1,0,2.1,0,3.1
		C41.8,31.8,60.2,31.8,78.7,31.8z"/>
	<path fill="#FFFFFF" d="M31.8,63.7c0-10.5,8.6-19.2,19.2-19.1c10.6,0,19.2,8.6,19.2,19.2c0,10.6-8.6,19.2-19.2,19.1
		C40.3,82.9,31.8,74.3,31.8,63.7z M46.8,61.6c2.8,0,5.6,0,8.4,0c-0.2-3.3-0.6-6.4-1.8-9.5c-0.4-1-1-1.9-1.6-2.8
		c-0.5-0.7-1.1-0.7-1.6,0c-0.5,0.7-1,1.4-1.3,2.1C47.5,54.7,47,58.1,46.8,61.6z M46.7,65.9c0.2,1.8,0.4,3.5,0.7,5.2
		c0.4,2.2,1,4.4,2.3,6.3c1,1.5,1.7,1.6,2.6,0c0.8-1.4,1.3-2.9,1.8-4.4c0.7-2.3,1-4.7,1.1-7.1C52.4,65.9,49.6,65.9,46.7,65.9z
		 M36.2,61.6c2.2,0,4.2,0,6.3,0c0.1-3.9,0.9-7.6,2.3-11.4C39.9,52.7,37.1,56.4,36.2,61.6z M57.2,50.3c1.4,3.7,2.1,7.4,2.3,11.3
		c2.1,0,4.2,0,6.2,0C65.2,56.7,61.3,51.9,57.2,50.3z M44.7,77.2c-1.3-3.7-2-7.4-2.2-11.3c-2.1,0-4.2,0-6.3,0
		C37.1,71.1,39.9,74.9,44.7,77.2z M59.4,65.9c-0.1,3.9-0.9,7.6-2.3,11.4c4.9-2.5,7.6-6.2,8.6-11.4C63.6,65.9,61.6,65.9,59.4,65.9z"
		/>
	<path fill="#FFFFFF" d="M29.6,29.6c-1.2,0-2.1-1-2.1-2.1c0-1.2,1-2.2,2.2-2.1c1.2,0,2.1,1,2.1,2.2C31.8,28.7,30.8,29.7,29.6,29.6z"
		/>
	<path fill="#FFFFFF" d="M38.2,27.5c0,1.2-0.9,2.1-2.1,2.2c-1.2,0-2.1-0.9-2.2-2.1c0-1.2,0.9-2.2,2.1-2.2
		C37.2,25.4,38.2,26.3,38.2,27.5z"/>
	<path fill="#FFFFFF" d="M44.6,27.5c0,1.2-0.9,2.1-2.1,2.2c-1.2,0-2.1-0.9-2.2-2.1c0-1.2,0.9-2.2,2.1-2.2
		C43.6,25.4,44.6,26.3,44.6,27.5z"/>
</g>
</svg>
