<?xml version="1.0" encoding="utf-8"?>
<!-- Generator: Adobe Illustrator 25.4.1, SVG Export Plug-In . SVG Version: 6.00 Build 0)  -->
<svg version="1.2" baseProfile="tiny" id="Capa_1" xmlns="http://www.w3.org/2000/svg" xmlns:xlink="http://www.w3.org/1999/xlink"
	 x="0px" y="0px" viewBox="0 0 101.9 101.9" overflow="visible" xml:space="preserve">
<path fill="#DD2B75" d="M90.3,99.3H11.7c-5,0-9-4-9-9V11.7c0-5,4-9,9-9h78.6c5,0,9,4,9,9v78.6C99.3,95.3,95.3,99.3,90.3,99.3z"/>
<g>
	<path fill="#FFFFFF" d="M58.9,85.3c0,0.5,0,0.9,0,1.3c0,2.5-1.8,4.4-4.3,4.5c-2.4,0.1-4.8,0.1-7.3,0c-2.5-0.1-4.3-2-4.3-4.5
		c0-0.4,0-0.8,0-1.3c-0.4,0-0.8,0-1.1,0c-1.3,0-1.7-0.4-1.7-1.7c0-3,0-6,0-9c0-0.7-0.2-1.1-0.9-1.4c-1.5-0.7-2.5-1.8-3.3-3.2
		c-0.1-0.2-0.4-0.5-0.6-0.6c-4.3-1-7-3.9-8.9-7.8c-1.8-3.7-1.9-7.6-1.2-11.6c0.1-0.5,0-1,0-1.5c-0.7-3.7,0-7.2,1.4-10.6
		c1.3-3.1,3-5.9,5.9-7.9c1.8-1.3,3.8-2,6-2.1c0.5,0,0.8-0.2,1-0.6c2.3-3,5.3-5,9.2-4.9c1.7,0.1,3.4,0,5.1,0.1c3.6,0.1,6.3,2,8.5,4.8
		c0.3,0.4,0.7,0.7,1.2,0.7c3.2,0.2,5.9,1.5,8,3.9c3.9,4.5,5.9,9.7,5.3,15.6c-0.2,1.6,0,3.1,0.1,4.6c0.5,5.4-0.9,10.3-4.9,14.2
		c-1.5,1.5-3.3,2.5-5.4,3c-0.3,0.1-0.6,0.3-0.7,0.5c-0.9,1.5-2,2.7-3.6,3.5c-0.5,0.2-0.6,0.5-0.6,1c0,3,0,6,0,8.9c0,1.7-0.3,2-2,2
		C59.5,85.3,59.3,85.3,58.9,85.3z M63.5,69c-0.3-0.1-0.5-0.2-0.7-0.3c-1.6-0.8-3-1.9-3.9-3.4c-0.5-0.8-0.4-1.5,0.2-2
		c0.6-0.4,1.4-0.2,1.9,0.5c0.1,0.2,0.3,0.4,0.4,0.6c2.1,2.4,4.3,3.1,7.1,1.4c2.5-1.6,4.1-3.8,5.1-6.5c1.1-3,1-6.1,0.4-9.2
		c-0.3-1.5-1.1-2.2-2.4-2.5c-0.7-0.1-1.4-0.2-2.1-0.2c-0.9-0.1-1.3-0.6-1.3-1.4c0-0.6,0.1-1.1,0.1-1.7c0-1.9-0.5-3.6-2.3-4.7
		c-0.8-0.5-1.1-1.2-0.7-1.8c0.4-0.7,1.1-0.8,1.9-0.4c1.8,1,2.9,2.5,3.4,4.5c0.2,1,0.3,1.9,0.4,2.8c1.2,0.4,2.3,0.7,3.5,1.1
		c-0.1-1-0.2-2.1-0.3-3c-0.7-3.8-2.2-7.3-5.2-9.9c-1.8-1.6-3.9-2.5-6.3-2.4c-0.9,0-1.4-0.2-1.8-0.9c-1.1-1.8-2.7-3.3-4.7-4
		c-1.2-0.5-2.5-0.7-3.8-0.4c0,0.2,0,0.3,0,0.5c0,14.9,0,29.7,0,44.6c0,0.5,0.2,0.7,0.6,0.9c2.7,1.4,5.4,1.2,8.1,0.1
		C61.9,70.8,62.8,70.1,63.5,69z M31.1,44.7c0-0.4,0-0.9,0-1.3c0.2-2.6,1.2-4.7,3.6-5.9c0.8-0.4,1.6-0.3,1.9,0.4
		c0.4,0.7,0.1,1.4-0.7,1.8c-1.2,0.6-1.9,1.6-2.1,2.9c-0.2,1-0.2,2.1-0.1,3.1c0.1,1.2-0.3,1.7-1.5,1.8c-0.9,0.1-1.7,0.2-2.6,0.4
		c-0.9,0.3-1.5,0.9-1.7,1.8c-0.8,3.3-0.8,6.7,0.4,9.9c1.3,3.2,3.3,5.8,6.7,7c1,0.4,1.9,0.3,2.9-0.1c1.3-0.6,2.3-1.4,3-2.6
		c0.5-0.7,1.2-0.9,1.8-0.5c0.6,0.4,0.8,1.2,0.3,1.9c-0.7,0.9-1.4,1.7-2.2,2.4c-0.7,0.6-1.6,1-2.5,1.5c0.2,0.2,0.4,0.4,0.6,0.6
		c2.3,2.3,6.6,2.9,9.8,1.4c0.6-0.3,0.8-0.6,0.8-1.3c0-14.6,0-29.3,0-43.9c0-0.3,0-0.6,0-0.9c-0.8,0-1.6-0.1-2.3,0
		c-2.8,0.5-4.8,2.2-6.3,4.5c-0.4,0.6-0.8,0.9-1.6,0.9c-2.2-0.1-4.2,0.5-5.9,1.9c-3.4,2.7-5,6.4-5.8,10.4c-0.2,1-0.2,2.1-0.3,3.1
		C28.7,45.5,29.9,45.1,31.1,44.7z M59.2,79.5c-5.5,0-11,0-16.4,0c0,1.1,0,2.1,0,3.1c5.5,0,10.9,0,16.4,0
		C59.2,81.6,59.2,80.6,59.2,79.5z M42.7,76.8c5.5,0,11,0,16.4,0c0-0.8,0-1.6,0-2.4c-0.2,0-0.3,0-0.4,0c-2.6,0.4-5.1,0.1-7.5-1.2
		c-0.2-0.1-0.7-0.1-0.9,0.1c-2.1,1.1-4.4,1.5-6.7,1.1c-0.3,0-0.6-0.1-0.9-0.1C42.7,75.2,42.7,76,42.7,76.8z M56.4,85.3
		c-3.7,0-7.2,0-10.8,0c0,0.5,0,0.9,0,1.3c0.1,1.1,0.8,1.9,1.9,1.9c2.4,0,4.7,0,7.1,0c1.1,0,1.8-0.8,1.9-1.9
		C56.4,86.2,56.4,85.8,56.4,85.3z"/>
	<path fill="#FFFFFF" d="M52.2,14.7c0,0.9,0,1.7,0,2.6c0,0.8-0.5,1.4-1.2,1.4c-0.7,0-1.3-0.6-1.3-1.4c0-1.7,0-3.3,0-5
		c0-0.9,0.5-1.4,1.3-1.4c0.8,0,1.2,0.5,1.3,1.4C52.2,13,52.2,13.8,52.2,14.7z"/>
	<path fill="#FFFFFF" d="M17.1,47c0.8,0,1.6,0,2.5,0c0.8,0,1.4,0.5,1.4,1.2c0,0.7-0.5,1.3-1.4,1.3c-1.7,0-3.3,0-5,0
		c-0.9,0-1.4-0.5-1.4-1.3c0-0.7,0.6-1.2,1.4-1.3C15.4,47,16.3,47,17.1,47z"/>
	<path fill="#FFFFFF" d="M84.7,49.8c-0.8,0-1.6,0-2.5,0c-0.8,0-1.3-0.5-1.3-1.2c0-0.7,0.5-1.3,1.3-1.3c1.8,0,3.5,0,5.3,0
		c0.8,0,1.3,0.6,1.3,1.3c0,0.7-0.5,1.2-1.4,1.2C86.5,49.8,85.6,49.8,84.7,49.8z"/>
	<path fill="#FFFFFF" d="M78.2,74.5c-0.2,0.3-0.4,0.8-0.8,1c-0.4,0.2-1.1,0.2-1.3-0.1c-1.4-1.3-2.8-2.7-4.1-4
		c-0.5-0.5-0.4-1.2,0.1-1.6c0.5-0.5,1.1-0.6,1.6-0.1c1.4,1.3,2.7,2.7,4.1,4.1C78,73.8,78,74.1,78.2,74.5z"/>
	<path fill="#FFFFFF" d="M72.8,27.9c-0.3-0.3-0.8-0.5-0.9-0.8c-0.1-0.4-0.1-1,0.1-1.3c1.3-1.4,2.6-2.7,4-4c0.5-0.5,1.2-0.4,1.7,0.1
		c0.5,0.5,0.6,1.1,0.1,1.7c-1.3,1.4-2.6,2.7-4,4C73.6,27.7,73.3,27.7,72.8,27.9z"/>
	<path fill="#FFFFFF" d="M25,75.7c-0.3-0.3-0.8-0.5-0.9-0.8c-0.1-0.4-0.1-1,0.1-1.3c1.3-1.4,2.6-2.7,4-4c0.5-0.4,1.1-0.4,1.6,0.1
		c0.5,0.5,0.6,1.1,0.2,1.6c-1.3,1.4-2.7,2.7-4.1,4.1C25.7,75.6,25.4,75.6,25,75.7z"/>
	<path fill="#FFFFFF" d="M25.1,21.3c0.4,0.3,0.8,0.4,1,0.6c1.2,1.1,2.4,2.3,3.5,3.5c0.6,0.7,0.7,1.4,0.1,1.9
		c-0.5,0.5-1.3,0.5-1.9-0.1c-1.2-1.2-2.4-2.4-3.6-3.6c-0.4-0.4-0.6-1-0.3-1.5C24.2,21.8,24.7,21.6,25.1,21.3z"/>
	<path fill="#FFFFFF" d="M57.4,54.5c0.7,0.1,1.3-0.2,1.8-0.9c0.1-0.1,0.2-0.2,0.3-0.4c1.7-2.7,5.2-2.8,7.4-0.6
		c0.6,0.6,1,1.2,1.4,1.9c0.4,0.8,0.2,1.5-0.5,1.8c-0.6,0.3-1.3,0.1-1.8-0.6c-0.3-0.4-0.6-0.9-0.9-1.3c-1.2-1.3-2.6-1.2-3.6,0.2
		c-0.8,1.1-1.8,1.9-3.2,2.2c-0.4,0.1-0.7,0.1-1.1,0.1c-1-0.1-1.5-0.6-1.5-1.4C55.8,54.9,56.3,54.5,57.4,54.5z"/>
	<path fill="#FFFFFF" d="M60.8,42.7c-2.4,0-4.4-1.7-4.9-4.1c-0.4-2.1,0.9-4.6,3-5.5c0.8-0.3,1.5-0.1,1.8,0.5
		c0.3,0.6,0.1,1.3-0.6,1.8c-0.2,0.1-0.4,0.2-0.6,0.4c-0.9,0.7-1.3,1.5-1,2.5c0.3,1.1,1.2,1.8,2.2,1.9c0.1,0,0.2,0,0.2,0
		c1,0.1,1.6,0.6,1.5,1.3C62.4,42.3,61.8,42.7,60.8,42.7z"/>
	<path fill="#FFFFFF" d="M38.7,51.2c1.5,0,2.7,0.6,3.5,1.8c0.7,1,1.4,1.7,2.7,1.6c0.6-0.1,1.1,0.4,1.2,1.1c0.1,0.7-0.3,1.2-1,1.4
		c-1.7,0.3-3.1-0.3-4.3-1.5c-0.2-0.2-0.3-0.5-0.5-0.7c-1-1.3-2.3-1.4-3.5-0.3c-0.4,0.4-0.8,1-1.1,1.5c-0.4,0.6-1.1,0.8-1.7,0.5
		c-0.6-0.3-0.8-0.9-0.6-1.6C34.3,52.8,36.6,51.1,38.7,51.2z"/>
	<path fill="#FFFFFF" d="M46.2,37.8c-0.1,2.7-2.4,5-5.1,5c-0.9,0-1.5-0.5-1.5-1.3c0-0.8,0.5-1.2,1.4-1.3c1.1,0,2-0.5,2.4-1.6
		c0.5-1.1,0.1-2.1-0.9-2.8c-0.2-0.2-0.5-0.3-0.7-0.4c-0.6-0.4-0.8-1-0.5-1.7c0.3-0.6,1-0.9,1.7-0.6C44.8,33.7,46.2,35.9,46.2,37.8z"
		/>
</g>
</svg>
